<?xml version="1.0" standalone="no"?>
<!DOCTYPE svg PUBLIC "-//W3C//DTD SVG 20010904//EN"
 "http://www.w3.org/TR/2001/REC-SVG-20010904/DTD/svg10.dtd">
<svg version="1.0" xmlns="http://www.w3.org/2000/svg" 
 width="1969.000000pt" height="1091.000000pt" viewBox="0 0 1969.000000 1091.000000"
 preserveAspectRatio="xMidYMid meet">

<g transform="translate(0.000000,1091.000000) scale(0.100000,-0.100000)"
fill="#000000" stroke="none">
<path d="M12455 10890 c-81 -7 -196 -26 -265 -44 -14 -3 -82 -12 -151 -20
-132 -15 -238 -37 -424 -90 -27 -8 -79 -22 -115 -31 -36 -9 -72 -21 -80 -26
-8 -4 -43 -22 -77 -39 -60 -30 -163 -128 -163 -156 0 -7 -13 -22 -30 -34 -19
-13 -30 -30 -30 -45 0 -12 -7 -25 -15 -29 -8 -3 -15 -16 -15 -29 0 -13 -11
-38 -25 -57 -14 -19 -25 -41 -25 -50 0 -9 -11 -31 -25 -50 -14 -19 -25 -39
-25 -46 0 -20 -40 -102 -64 -131 -13 -15 -35 -53 -49 -83 -50 -109 -67 -149
-67 -160 0 -6 -11 -26 -24 -43 -32 -42 -106 -197 -106 -220 0 -11 -13 -31 -28
-45 -25 -24 -70 -94 -153 -237 -14 -25 -35 -54 -47 -65 -12 -12 -22 -26 -22
-33 0 -27 -222 -309 -339 -431 -78 -80 -226 -199 -337 -271 -34 -22 -93 -61
-130 -88 -184 -127 -355 -231 -435 -265 -41 -17 -121 -45 -179 -62 -124 -37
-238 -41 -360 -13 -73 17 -78 20 -165 104 -102 99 -332 297 -355 306 -13 6
-42 29 -120 97 -14 12 -46 30 -73 40 -26 10 -66 33 -88 52 -23 19 -46 34 -52
34 -15 0 -95 41 -134 67 -62 43 -117 63 -215 79 -88 14 -118 15 -203 5 -133
-16 -223 -37 -308 -72 -38 -16 -81 -29 -94 -29 -13 0 -54 16 -91 35 -37 19
-101 47 -142 62 -41 15 -81 31 -88 37 -16 12 -171 21 -206 12 -17 -4 -28 -17
-36 -41 -12 -37 -8 -52 22 -73 32 -23 192 -163 252 -220 152 -145 152 -146
174 -219 12 -38 31 -78 42 -88 11 -10 20 -26 20 -35 0 -9 7 -25 15 -36 8 -10
15 -25 15 -32 0 -12 49 -66 67 -73 5 -2 31 -51 58 -109 27 -58 63 -127 81
-155 63 -101 76 -126 71 -138 -2 -6 2 -48 9 -92 7 -44 16 -144 20 -221 l7
-142 -41 -26 c-23 -14 -42 -31 -42 -36 0 -24 -241 -160 -285 -160 -9 0 -26 -6
-38 -14 -12 -8 -71 -31 -132 -51 -60 -21 -114 -41 -120 -45 -34 -24 -233 -84
-330 -99 -202 -31 -660 -57 -716 -41 -16 5 -133 14 -261 20 -128 6 -240 14
-248 16 -19 7 -140 21 -290 35 -63 5 -189 19 -280 30 -295 37 -376 41 -490 28
-90 -10 -119 -19 -206 -59 -111 -52 -246 -138 -343 -218 -34 -29 -66 -52 -70
-52 -5 0 -20 -18 -35 -40 -15 -23 -42 -48 -61 -57 -18 -9 -36 -25 -39 -37 -3
-12 -68 -86 -146 -166 -98 -102 -166 -183 -227 -272 -48 -71 -91 -128 -95
-128 -4 0 -8 -9 -8 -20 0 -11 -18 -37 -40 -59 -22 -21 -40 -43 -40 -47 -1 -11
-47 -64 -158 -180 -128 -133 -308 -368 -343 -449 -10 -21 -17 -33 -66 -107
-17 -26 -34 -63 -38 -80 -4 -18 -18 -42 -31 -53 -27 -24 -184 -281 -184 -303
0 -16 -64 -136 -86 -162 -20 -23 -148 -280 -164 -329 -8 -24 -21 -46 -30 -48
-10 -3 -29 -40 -49 -96 -32 -89 -63 -149 -148 -287 -22 -36 -73 -128 -113
-205 -40 -77 -88 -165 -107 -197 -18 -31 -61 -109 -94 -175 -118 -228 -170
-328 -184 -353 -8 -14 -26 -56 -41 -95 -14 -38 -37 -91 -50 -116 -12 -25 -34
-79 -48 -119 -15 -41 -33 -84 -41 -96 -8 -13 -15 -30 -15 -37 0 -8 -10 -29
-23 -48 -12 -19 -29 -54 -37 -79 -7 -25 -26 -72 -41 -105 -16 -33 -35 -87 -43
-119 -9 -33 -20 -64 -26 -70 -5 -5 -10 -18 -10 -27 0 -9 -7 -22 -15 -29 -8 -7
-15 -29 -15 -49 0 -20 -7 -45 -15 -55 -8 -11 -15 -29 -15 -40 0 -12 -7 -34
-15 -50 -8 -15 -15 -48 -15 -73 0 -30 -7 -53 -20 -70 -11 -14 -20 -33 -20 -42
0 -10 -5 -22 -10 -27 -6 -6 -22 -53 -36 -105 -15 -52 -34 -123 -44 -159 -103
-364 -99 -346 -111 -538 -6 -101 -8 -190 -5 -197 3 -8 -3 -35 -12 -62 -13 -36
-16 -68 -12 -132 3 -48 10 -86 16 -88 6 -2 19 15 29 37 10 22 22 40 26 40 5 0
15 -16 23 -35 24 -57 55 -49 140 38 40 39 87 98 105 130 18 31 41 61 51 67 23
12 30 32 40 107 5 42 16 72 32 92 21 26 39 54 78 120 9 14 30 45 47 69 19 26
35 62 39 90 5 33 15 52 35 69 15 13 31 33 34 43 4 11 13 20 20 20 19 0 38 38
70 143 30 98 44 109 27 20 -6 -32 -14 -112 -18 -178 -4 -66 -9 -138 -12 -160
-3 -22 -4 -81 -3 -132 1 -50 -2 -108 -7 -127 -8 -27 -7 -38 4 -47 8 -6 14 -18
14 -26 0 -11 8 -14 31 -11 23 4 33 0 41 -15 10 -19 11 -19 23 -3 7 9 11 26 8
36 -5 18 0 20 64 20 56 0 77 4 103 23 35 23 86 89 124 161 12 22 34 60 49 83
15 24 27 46 27 51 0 8 95 125 143 176 12 12 38 47 57 75 19 29 51 71 71 94
l37 41 32 -34 c31 -33 33 -34 46 -15 8 10 14 25 14 32 0 7 6 31 12 53 l13 40
68 0 c82 0 129 18 153 59 10 17 21 31 25 31 3 0 11 12 18 26 21 47 84 113 123
128 25 11 40 24 44 40 3 14 30 48 59 75 41 39 61 51 85 51 17 0 44 7 60 15 36
18 230 230 256 278 10 20 47 67 81 104 92 100 153 175 153 187 0 6 18 19 39
30 21 10 52 35 67 57 16 21 55 66 86 100 32 35 58 66 58 70 0 9 45 59 52 59
15 0 186 188 206 226 12 24 28 44 35 44 6 0 21 14 32 31 11 17 45 52 76 77 31
26 80 75 109 109 28 35 55 63 59 63 4 0 21 20 39 45 17 25 58 62 89 83 142 92
208 149 259 223 28 41 54 84 58 96 5 14 18 25 34 29 50 10 167 47 195 61 39
20 70 53 82 87 7 19 20 33 40 39 16 6 38 18 48 28 11 9 33 23 51 29 17 6 38
16 46 21 8 5 34 19 57 30 24 11 43 25 43 31 0 7 19 9 59 5 61 -7 91 0 181 41
55 25 195 39 318 31 13 0 42 14 65 32 l42 34 270 -1 c149 -1 331 -3 406 -5
135 -4 136 -4 175 24 37 25 47 27 140 27 94 0 136 -9 249 -51 89 -33 168 -34
200 -3 8 9 15 30 15 47 0 25 -12 43 -62 91 -137 131 -142 172 -21 140 197 -51
338 -74 460 -74 98 0 131 4 156 17 44 23 247 34 872 45 l150 3 13 27 13 28 41
-48 c43 -50 89 -95 178 -172 31 -27 164 -155 297 -285 241 -236 242 -236 266
-308 14 -40 31 -88 38 -107 6 -19 29 -71 50 -116 20 -44 43 -101 50 -125 7
-24 28 -69 46 -99 18 -30 33 -60 33 -67 0 -6 6 -18 13 -25 16 -17 41 -82 73
-188 9 -30 33 -91 55 -134 21 -44 39 -85 39 -91 0 -7 11 -29 25 -50 26 -37 43
-78 71 -170 9 -27 22 -57 30 -66 8 -8 14 -21 14 -28 0 -6 4 -17 9 -24 90 -113
158 -151 301 -167 52 -6 103 -13 114 -16 10 -3 35 1 55 9 20 8 60 20 90 27 58
13 159 51 203 75 14 8 35 15 45 15 10 0 36 9 58 20 22 11 49 20 62 20 26 0 96
34 114 56 17 21 76 50 117 57 41 8 256 92 300 118 18 10 43 19 55 19 13 0 44
20 71 45 27 24 65 50 85 56 43 14 101 55 101 72 0 7 20 33 45 57 53 52 70 100
54 151 -16 51 -40 101 -61 131 -10 15 -25 46 -32 70 -7 24 -35 77 -62 118 -26
41 -54 86 -62 100 -7 14 -20 32 -28 41 -8 8 -14 20 -14 25 0 5 -15 30 -32 55
-18 25 -50 79 -71 120 -21 42 -57 98 -81 125 -24 27 -54 67 -67 90 -27 45 -91
145 -120 186 -10 15 -19 35 -19 45 0 9 -27 57 -61 106 -33 49 -68 109 -76 134
-9 27 -23 48 -34 50 -13 4 -21 22 -30 62 -6 31 -18 72 -26 91 -17 40 -41 178
-53 298 -4 45 -13 95 -19 110 -16 40 -69 269 -77 332 -4 30 -13 64 -19 75 -7
11 -18 37 -25 58 -7 21 -23 57 -35 80 -27 47 -25 57 14 57 33 0 165 44 198 65
13 9 41 44 63 79 43 68 109 134 157 160 16 8 77 63 134 123 57 59 122 117 144
128 22 11 85 65 141 120 55 55 112 108 126 117 15 10 68 56 118 103 60 56 114
96 154 115 45 21 85 53 141 110 43 45 93 87 110 94 18 8 50 33 71 57 77 85
129 136 156 150 14 8 57 50 95 93 49 57 84 87 123 107 37 19 79 54 130 109 41
45 117 125 168 178 69 73 103 118 135 180 38 74 46 84 85 99 32 12 48 26 62
54 11 20 45 59 76 85 31 27 74 76 95 109 21 33 56 74 78 91 54 41 131 145 131
178 0 26 15 36 22 14 2 -6 20 4 42 25 21 20 42 37 47 37 4 0 21 13 38 29 17
17 44 31 68 34 38 6 40 9 49 54 l9 48 58 6 c32 4 64 12 70 18 6 6 19 11 28 11
9 0 23 10 32 23 14 20 16 21 32 6 15 -14 21 -15 42 -4 14 7 31 24 37 37 13 25
59 35 169 37 56 1 61 3 139 66 80 64 82 65 142 65 100 0 226 19 305 47 70 24
79 25 141 14 69 -13 323 -1 371 17 12 5 41 5 63 1 68 -13 244 -10 371 7 66 8
143 13 170 10 28 -3 99 -11 159 -17 93 -10 136 -9 290 6 186 19 301 20 371 5
59 -13 389 3 409 19 9 8 16 28 16 47 0 30 3 34 33 39 18 4 61 1 96 -5 46 -8
76 -8 116 0 67 14 228 17 278 6 56 -13 83 6 123 86 l34 67 37 -7 c45 -8 145
-8 386 3 l178 8 24 48 c31 61 47 64 216 48 73 -6 184 -9 247 -7 107 5 117 7
134 29 46 59 84 99 95 99 6 0 13 4 15 10 2 6 23 4 53 -6 46 -13 219 -34 305
-37 70 -1 210 50 210 78 0 8 8 19 18 25 15 9 14 13 -18 41 -19 16 -55 41 -80
56 -25 14 -70 45 -101 69 -40 30 -91 56 -170 84 -63 22 -125 51 -139 65 -14
13 -41 30 -60 36 -19 7 -42 17 -50 24 -8 7 -42 20 -75 30 -33 9 -84 32 -113
51 -94 62 -139 83 -259 125 -65 22 -127 43 -138 46 -11 3 -146 45 -300 95
-154 49 -301 96 -327 105 -26 8 -50 19 -53 24 -4 5 -19 9 -35 9 -16 0 -32 5
-35 10 -3 6 -16 10 -28 10 -12 0 -89 21 -172 45 -82 25 -177 52 -210 59 -33 8
-94 24 -135 36 -41 12 -109 29 -150 36 -41 8 -111 25 -155 39 -44 13 -143 35
-220 49 -77 14 -187 37 -245 51 -58 14 -129 28 -159 30 -30 3 -59 9 -65 14 -6
4 -42 11 -80 14 -38 4 -78 13 -90 21 -12 7 -58 16 -101 19 -100 6 -296 36
-310 46 -10 8 -45 13 -240 31 -55 5 -134 18 -175 30 -232 64 -801 168 -1040
190 -47 4 -132 15 -190 23 -316 48 -327 49 -615 45 -154 -1 -397 0 -540 3
-143 4 -300 3 -350 -1z m975 -2754 c0 -3 -4 -8 -10 -11 -5 -3 -10 -1 -10 4 0
6 5 11 10 11 6 0 10 -2 10 -4z"/>
</g>
</svg>
